<svg width="723" height="416" viewBox="0 0 723 416" fill="none" xmlns="http://www.w3.org/2000/svg">
<rect width="723" height="416" rx="8" fill="#BDBDBD"/>
<path d="M307.236 220.5V195.3H312.168V220.5H307.236ZM317.642 220.5V195.3H323.006L330.35 206.172L337.694 195.3H343.022V220.5H338.126V203.004L330.35 214.452L322.574 203.04V220.5H317.642ZM365.969 220.5L356.321 195.3H361.253L371.189 220.5H365.969ZM346.061 220.5L355.997 195.3H360.929L351.281 220.5H346.061ZM350.741 214.956V210.6H366.545V214.956H350.741ZM384.573 220.932C382.005 220.932 379.725 220.38 377.733 219.276C375.765 218.148 374.217 216.612 373.089 214.668C371.961 212.7 371.397 210.444 371.397 207.9C371.397 205.356 371.961 203.112 373.089 201.168C374.217 199.2 375.765 197.664 377.733 196.56C379.725 195.432 382.005 194.868 384.573 194.868C386.109 194.868 387.525 195.096 388.821 195.552C390.117 196.008 391.257 196.644 392.241 197.46C393.249 198.252 394.089 199.164 394.761 200.196L390.729 202.716C390.321 202.068 389.781 201.492 389.109 200.988C388.461 200.484 387.741 200.088 386.949 199.8C386.157 199.512 385.365 199.368 384.573 199.368C382.989 199.368 381.585 199.74 380.361 200.484C379.137 201.204 378.177 202.2 377.481 203.472C376.785 204.744 376.437 206.22 376.437 207.9C376.437 209.556 376.773 211.032 377.445 212.328C378.141 213.624 379.113 214.644 380.361 215.388C381.609 216.108 383.049 216.468 384.681 216.468C385.953 216.468 387.081 216.216 388.065 215.712C389.073 215.208 389.865 214.5 390.441 213.588C391.017 212.676 391.305 211.62 391.305 210.42L395.985 209.7C395.985 212.076 395.493 214.104 394.509 215.784C393.549 217.464 392.205 218.748 390.477 219.636C388.773 220.5 386.805 220.932 384.573 220.932ZM385.401 210.852V207H395.985V210.06L393.321 210.852H385.401ZM399.627 220.5V195.3H415.575V199.8H404.559V205.524H414.063V209.916H404.559V216H415.719V220.5H399.627Z" fill="#A6A2A2"/>
</svg>
